<svg viewBox="0 0 200 200" xmlns="http://www.w3.org/2000/svg">

 <path fill="#FA4D56" d="M11,-25.1C12.7,-18.2,11.3,-12,22.4,-7.9C33.5,-3.8,57.1,-1.9,65.1,4.6C73,11.1,65.3,22.1,54.9,27.5C44.6,32.9,31.6,32.7,22.1,37.1C12.5,41.5,6.2,50.5,2.9,45.6C-0.5,40.6,-1,21.6,-12.6,18.4C-24.2,15.1,-46.8,27.6,-56.8,27.2C-66.9,26.7,-64.3,13.4,-60.6,2.1C-56.9,-9.1,-52.2,-18.3,-45.4,-24.3C-38.6,-30.4,-29.8,-33.4,-21.9,-36.7C-14,-40,-7,-43.6,-1.2,-41.6C4.7,-39.6,9.4,-32,11,-25.1Z" transform="translate(100 100)" />

</svg>